<?xml version="1.0" standalone="no"?>
<!DOCTYPE svg PUBLIC "-//W3C//DTD SVG 20010904//EN"
 "http://www.w3.org/TR/2001/REC-SVG-20010904/DTD/svg10.dtd">
<svg version="1.0" xmlns="http://www.w3.org/2000/svg"
 width="561.000000pt" height="489.000000pt" viewBox="0 0 561.000000 489.000000"
 preserveAspectRatio="xMidYMid meet">

<g transform="translate(0.000000,489.000000) scale(0.100000,-0.100000)"
fill="#000000" stroke="none">
<path d="M2975 4840 c-51 -7 -129 -33 -149 -49 -6 -5 -60 -26 -121 -47 -105
-36 -116 -38 -230 -37 -102 0 -139 5 -245 33 -145 38 -177 40 -285 17 -44 -9
-107 -22 -140 -28 -174 -33 -255 -73 -394 -196 -124 -110 -187 -164 -283 -240
-46 -36 -94 -77 -108 -91 -14 -13 -40 -36 -57 -49 -18 -14 -33 -31 -33 -38 0
-12 8 -27 87 -175 71 -132 123 -230 159 -300 51 -101 46 -100 169 -45 17 7 75
32 130 54 55 23 108 46 117 51 25 14 55 12 61 -4 3 -7 33 -370 66 -807 34
-437 67 -812 74 -834 12 -39 14 -40 82 -58 93 -23 250 -37 414 -37 l134 0 -65
68 c-92 96 -161 204 -206 327 -54 147 -62 366 -18 520 85 294 288 515 561 610
159 55 278 66 442 39 154 -24 297 -89 416 -187 27 -21 50 -37 53 -35 2 3 -5
115 -16 249 -25 309 -25 319 -2 319 17 0 211 -46 379 -89 55 -15 74 -16 82 -7
5 6 33 76 61 156 28 80 74 209 102 288 50 141 51 144 32 162 -10 10 -93 62
-184 115 -91 54 -230 136 -310 183 -164 97 -281 149 -355 156 -92 9 -369 13
-420 6z m-39 -112 c-17 -109 -105 -203 -236 -253 -60 -23 -89 -28 -174 -29
-124 -1 -216 24 -291 82 -78 59 -136 182 -85 182 11 0 57 -11 102 -24 198 -56
409 -39 576 47 37 20 78 36 91 36 22 1 23 -1 17 -41z"/>
<path d="M2884 3419 c-238 -31 -466 -192 -578 -409 -131 -252 -115 -558 39
-790 60 -90 177 -199 267 -249 84 -47 105 -50 113 -18 13 51 10 79 -10 91
-166 96 -251 180 -314 308 -183 371 7 807 408 934 25 8 91 17 146 21 128 6
221 -12 335 -68 120 -59 238 -178 297 -299 42 -87 73 -211 73 -295 0 -42 1
-43 44 -55 66 -18 70 -12 63 99 -7 123 -26 194 -82 306 -116 235 -337 392
-596 425 -92 11 -116 11 -205 -1z"/>
<path d="M2843 3090 c-148 -53 -269 -184 -302 -331 -17 -72 -13 -181 9 -250
25 -82 54 -128 120 -195 81 -82 108 -83 117 -2 4 40 1 46 -42 87 -25 25 -58
70 -73 100 -23 48 -27 68 -27 146 0 82 3 97 33 157 37 77 90 128 172 167 47
22 68 26 145 26 78 0 98 -4 146 -28 94 -46 164 -127 192 -223 12 -43 18 -49
56 -62 60 -20 75 -11 67 38 -26 166 -145 306 -310 366 -85 31 -223 33 -303 4z"/>
<path d="M2906 2885 c-59 -23 -99 -57 -128 -111 -35 -67 -42 -104 -28 -169 21
-103 105 -179 208 -192 l50 -6 47 -81 c25 -44 62 -108 82 -141 148 -249 173
-293 173 -302 0 -7 -21 -5 -57 3 -110 26 -223 14 -278 -30 -22 -17 -29 -33
-32 -72 -7 -72 17 -94 100 -94 50 0 99 -12 241 -60 167 -56 189 -60 326 -72
134 -11 152 -10 206 6 80 24 138 52 208 101 79 53 111 100 125 178 16 92 -5
158 -89 287 -16 25 -39 61 -50 80 -63 109 -134 218 -157 242 -39 41 -76 45
-123 14 -36 -24 -40 -24 -69 -10 -27 13 -34 13 -68 -1 -21 -9 -47 -27 -58 -41
-18 -22 -23 -24 -52 -14 -25 9 -37 8 -61 -4 -34 -18 -72 -61 -72 -83 0 -32
-28 -2 -90 98 l-66 104 18 48 c21 56 23 135 4 181 -20 47 -73 104 -119 128
-52 26 -140 32 -191 13z"/>
<path d="M3761 1293 l-21 -18 36 -450 c30 -380 38 -452 52 -463 22 -17 130 -8
151 13 12 12 13 36 2 172 -6 87 -14 183 -17 214 -6 53 -5 57 29 92 29 31 41
37 75 37 57 0 78 -25 85 -103 3 -34 12 -133 18 -221 9 -108 17 -162 26 -172
17 -17 73 -18 126 -3 36 10 37 11 37 57 0 60 -28 417 -36 457 -3 17 -17 49
-30 71 -53 93 -200 99 -299 12 -25 -22 -45 -36 -45 -31 -2 55 -30 334 -35 342
-11 19 -130 13 -154 -6z"/>
<path d="M2224 1180 c-12 -4 -23 -14 -26 -22 -7 -19 49 -723 63 -786 21 -100
91 -150 196 -139 94 10 124 50 91 122 -9 20 -18 25 -49 25 -29 0 -42 6 -53 22
-9 16 -22 131 -40 383 -15 198 -31 370 -36 383 -8 19 -17 22 -67 21 -32 0 -67
-4 -79 -9z"/>
<path d="M3398 1143 c-40 -6 -58 -38 -58 -104 0 -50 -3 -57 -25 -67 -22 -10
-25 -18 -25 -65 0 -55 12 -77 42 -77 10 0 18 -1 18 -3 0 -1 7 -85 15 -187 21
-257 49 -309 172 -318 119 -8 172 34 140 111 -15 34 -19 37 -55 37 -22 0 -44
6 -50 13 -6 7 -16 71 -21 142 -6 72 -14 151 -16 178 l-6 47 35 0 c19 0 42 7
50 16 19 19 20 70 3 104 -11 21 -18 25 -53 22 l-41 -3 -7 67 c-4 38 -12 74
-18 81 -10 13 -43 14 -100 6z"/>
<path d="M4670 1081 c-102 -9 -191 -20 -197 -24 -8 -5 -13 -29 -13 -57 0 -53
20 -84 49 -76 9 3 65 8 126 12 l109 7 -15 -24 c-103 -159 -249 -411 -249 -428
0 -12 7 -35 15 -51 19 -36 13 -36 300 -14 239 18 241 19 230 94 -4 25 -11 49
-15 54 -6 5 -64 5 -145 0 -75 -5 -138 -8 -140 -6 -1 2 55 98 126 214 71 116
129 219 129 229 0 11 -7 35 -14 54 -18 42 -10 41 -296 16z"/>
<path d="M1034 1020 c-12 -5 -24 -12 -27 -17 -3 -4 -53 -195 -112 -423 -58
-228 -108 -423 -111 -432 -8 -27 29 -40 97 -32 33 4 66 12 73 19 7 7 20 49 30
93 l19 80 61 5 c33 4 102 9 153 13 l92 7 17 -42 c39 -99 58 -126 89 -129 48
-6 136 8 141 23 4 10 -185 460 -336 798 l-21 47 -72 -1 c-40 0 -82 -4 -93 -9z
m153 -389 c30 -73 52 -135 50 -137 -9 -9 -187 -16 -187 -8 0 12 61 284 68 304
4 11 6 10 10 -5 2 -11 29 -80 59 -154z"/>
<path d="M2800 937 c-158 -44 -232 -187 -201 -387 31 -198 136 -289 319 -278
194 12 287 116 285 323 -1 168 -53 275 -163 331 -45 22 -178 29 -240 11z m172
-168 c33 -39 48 -98 48 -186 -1 -122 -50 -185 -133 -169 -44 8 -75 42 -93 101
-20 67 -18 188 3 232 32 69 125 81 175 22z"/>
<path d="M1798 856 c-156 -45 -222 -169 -198 -374 23 -208 129 -302 324 -289
83 5 173 33 207 63 27 24 23 59 -10 96 -28 32 -30 33 -63 19 -182 -74 -262
-28 -275 160 -5 61 -2 84 14 120 34 76 96 92 239 63 29 -6 33 -3 54 41 26 54
22 71 -26 95 -39 20 -204 23 -266 6z"/>
</g>
</svg>
